# xmcd CD database file
#
# Track frame offsets:
#	183
#	9808
#	30200
#	55188
#	65463
#	89835
#	107985
#	131668
#	147153
#	162310
#	185250
#	205898
#
# Disc length: 2980 seconds
#
# Revision: 0
# Processed by: cddbd v1.5.1PL0 Copyright (c) Steve Scherf et al.
# Submitted via: CDex 1.51
#
DISCID=9f0ba20c
DTITLE=Association Urbanetique - Don't Look Back
DYEAR=1990
DGENRE=Jazz
TTITLE0=Laura
TTITLE1=Warm Up
TTITLE2=Folksong
TTITLE3=Müller's Esel
TTITLE4=Humus Humus
TTITLE5=One for James
TTITLE6=Saluman
TTITLE7=Kreuzberg
TTITLE8=Osla
TTITLE9=Monkey in Monkey Mood
TTITLE10=Pilgrim to Penelope
TTITLE11=Don't Look Back
EXTD=YEAR: 1990
EXTT0=
EXTT1=
EXTT2=
EXTT3=
EXTT4=
EXTT5=
EXTT6=
EXTT7=
EXTT8=
EXTT9=
EXTT10=
EXTT11=
PLAYORDER=
